<svg xmlns="http://www.w3.org/2000/svg" width="39.09" height="41.567" viewBox="0 0 39.09 41.567"><g transform="translate(0.6 0.6)"><g transform="translate(0 0)"><g transform="translate(0 0)"><g transform="translate(2.415)"><path d="M78.91,58.2a.6.6,0,0,1-.6-.6V39.851a2.844,2.844,0,0,1,2.84-2.841H90.1a2.851,2.851,0,0,1,2.576,1.644l2.178,4.692a.6.6,0,1,1-1.088.505L91.586,39.16a1.647,1.647,0,0,0-1.488-.95H81.15a1.642,1.642,0,0,0-1.64,1.641V57.6A.6.6,0,0,1,78.91,58.2Z" transform="translate(-76.464 -35.164)" fill="#b4b4b4"></path><path d="M48.79,27.644a.6.6,0,0,1-.6-.6V12.186A5.292,5.292,0,0,1,53.476,6.9h8.948a5.3,5.3,0,0,1,4.794,3.06l2.167,4.666a.6.6,0,1,1-1.088.505l-2.167-4.666A4.1,4.1,0,0,0,62.424,8.1H53.476a4.091,4.091,0,0,0-4.086,4.086V27.044A.6.6,0,0,1,48.79,27.644Z" transform="translate(-48.79 -7.5)" fill="#b4b4b4"></path><path d="M51.236,363.893H48.79a.6.6,0,0,1-.6-.6V350.81a.6.6,0,1,1,1.2,0v11.883h1.246V350.85a.6.6,0,1,1,1.2,0v12.443A.6.6,0,0,1,51.236,363.893Z" transform="translate(-48.79 -322.926)" fill="#b4b4b4"></path></g><path d="M2.989-.6A3.589,3.589,0,1,1-.6,2.989,3.593,3.593,0,0,1,2.989-.6Zm0,5.977A2.389,2.389,0,1,0,.6,2.989,2.391,2.391,0,0,0,2.989,5.377Z" transform="translate(0.694 22.189)" fill="#b4b4b4"></path><path d="M78.9,405.737h4.322a2.084,2.084,0,0,1,2.082,2.082v6.491a.6.6,0,0,1-.6.6H78.9a.6.6,0,0,1-.6-.6v-7.973A.6.6,0,0,1,78.9,405.737Zm5.2,7.973v-5.891a.883.883,0,0,0-.882-.882H79.5v6.773Z" transform="translate(-74.044 -373.943)" fill="#b4b4b4"></path><path d="M12.827.6H0A.6.6,0,0,1-.6,0,.6.6,0,0,1,0-.6H12.827a.6.6,0,0,1,.6.6A.6.6,0,0,1,12.827.6Z" transform="translate(0 40.367)" fill="#b4b4b4"></path></g><g transform="translate(15.958 6.648)"><path d="M216.8,131.96a1.87,1.87,0,0,1-.808-3.557l13.907-6.649a1.869,1.869,0,1,1,1.613,3.373l-4.344,2.077a.6.6,0,1,1-.518-1.083l4.344-2.077a.669.669,0,1,0-.577-1.208l-13.907,6.649a.669.669,0,1,0,.577,1.208l7-3.345a.6.6,0,0,1,.518,1.083l-7,3.345A1.863,1.863,0,0,1,216.8,131.96Z" transform="translate(-215.525 -119.505)" fill="#b4b4b4"></path><path d="M233.117,88.749h0a5.961,5.961,0,0,1,5.381,3.39.6.6,0,0,1-.282.8l-12.824,6.132a.6.6,0,0,1-.8-.282,5.96,5.96,0,0,1,2.806-7.948l3.153-1.508A5.906,5.906,0,0,1,233.117,88.749Zm4,3.383a4.793,4.793,0,0,0-4-2.183h0a4.715,4.715,0,0,0-2.049.467l-3.153,1.508a4.761,4.761,0,0,0-2.466,5.79Z" transform="translate(-223.869 -89.349)" fill="#b4b4b4"></path></g><g transform="translate(19.168 15.429)"><g transform="translate(0 5.089)"><path fill="#b4b4b4"></path><path transform="translate(1.234 2.58)" fill="#b4b4b4"></path><path transform="translate(2.482 5.19)" fill="#b4b4b4"></path><path transform="translate(3.715 7.77)" fill="#b4b4b4"></path><path transform="translate(4.963 10.381)" fill="#b4b4b4"></path><path transform="translate(6.197 12.961)" fill="#b4b4b4"></path><path transform="translate(7.445 15.571)" fill="#b4b4b4"></path><path transform="translate(8.679 18.151)" fill="#b4b4b4"></path></g><g transform="translate(3.312 5.178)"><path fill="#b4b4b4"></path><path transform="translate(1.233 2.58)" fill="#b4b4b4"></path><path transform="translate(4.963 10.381)" fill="#b4b4b4"></path><path transform="translate(6.197 12.961)" fill="#b4b4b4"></path><path transform="translate(7.445 15.571)" fill="#b4b4b4"></path><path transform="translate(8.679 18.151)" fill="#b4b4b4"></path></g><g transform="translate(5.322 2.545)"><path fill="#b4b4b4"></path><path transform="translate(1.234 2.58)" fill="#b4b4b4"></path><path transform="translate(2.482 5.19)" fill="#b4b4b4"></path><path transform="translate(3.715 7.77)" fill="#b4b4b4"></path><path transform="translate(4.963 10.381)" fill="#b4b4b4"></path><path transform="translate(6.197 12.961)" fill="#b4b4b4"></path><path transform="translate(7.445 15.571)" fill="#b4b4b4"></path><path transform="translate(8.679 18.151)" fill="#b4b4b4"></path><path transform="translate(9.927 20.761)" fill="#b4b4b4"></path></g><g transform="translate(8.633 2.633)"><path fill="#b4b4b4"></path><path transform="translate(1.234 2.58)" fill="#b4b4b4"></path><path transform="translate(2.482 5.19)" fill="#b4b4b4"></path><path transform="translate(3.715 7.77)" fill="#b4b4b4"></path><path transform="translate(4.963 10.381)" fill="#b4b4b4"></path><path transform="translate(6.197 12.961)" fill="#b4b4b4"></path><path transform="translate(8.679 18.151)" fill="#b4b4b4"></path><path transform="translate(9.927 20.761)" fill="#b4b4b4"></path></g><g transform="translate(10.643)"><path fill="#b4b4b4"></path><path transform="translate(1.234 2.58)" fill="#b4b4b4"></path><path transform="translate(2.482 5.19)" fill="#b4b4b4"></path><path transform="translate(3.715 7.77)" fill="#b4b4b4"></path><path transform="translate(4.963 10.381)" fill="#b4b4b4"></path><path transform="translate(6.197 12.961)" fill="#b4b4b4"></path><path transform="translate(7.445 15.571)" fill="#b4b4b4"></path><path transform="translate(8.679 18.151)" fill="#b4b4b4"></path></g><g transform="translate(13.955 0.089)"><path fill="#b4b4b4"></path><path transform="translate(1.234 2.58)" fill="#b4b4b4"></path><path transform="translate(2.482 5.19)" fill="#b4b4b4"></path><path transform="translate(3.715 7.77)" fill="#b4b4b4"></path><path transform="translate(4.963 10.381)" fill="#b4b4b4"></path></g></g></g></g></svg>