<svg xmlns="http://www.w3.org/2000/svg" width="40.146" height="45.739" viewBox="0 0 40.146 45.739"><g transform="translate(0)"><g transform="translate(0)"><path d="M70.341,0H32.415a1.111,1.111,0,0,0-1.11,1.11V34.9a.672.672,0,1,0,1.343,0V1.343H70.108V8.409a.672.672,0,0,0,1.343,0V1.11A1.111,1.111,0,0,0,70.341,0Z" transform="translate(-31.305 0)" fill="#b4b4b4"></path></g></g><g transform="translate(0 12.438)"><g transform="translate(0)"><path d="M70.779,139.233a.671.671,0,0,0-.672.672V171.19H32.648v-4.663a.672.672,0,1,0-1.343,0v4.9a1.111,1.111,0,0,0,1.11,1.11H70.341a1.111,1.111,0,0,0,1.11-1.11V139.9A.671.671,0,0,0,70.779,139.233Z" transform="translate(-31.305 -139.233)" fill="#b4b4b4"></path></g></g><g transform="translate(12.513 9.054)"><g transform="translate(0)"><path d="M173.819,127.075c-1.212,0-2.438-.631-2.438-1.838V103.151a1.889,1.889,0,0,1,2.038-1.8h6.506a8.237,8.237,0,0,1,5.636,1.824c1.553,1.375,2.34,3.456,2.34,6.186v.267c0,5.112-2.98,8.043-8.176,8.043h-3.467v7.57C176.257,126.3,175.232,127.075,173.819,127.075Zm-.4-24.388c-.453,0-.7.239-.7.464v22.086c0,.26.523.5,1.1.5.53,0,1.1-.2,1.1-.5v-8.91h4.807c3.119,0,6.836-1.163,6.836-6.7v-.267c0-4.426-2.233-6.67-6.636-6.67h-6.506Zm6.305,12.177h-4.807V104.483h4.807c2.949,0,4.64,1.813,4.64,4.974v.4C184.364,113.039,182.673,114.864,179.724,114.864Zm-3.467-1.34h3.467c2.19,0,3.3-1.234,3.3-3.667v-.4c0-2.445-1.079-3.634-3.3-3.634h-3.467Z" transform="translate(-171.381 -101.347)" fill="#b4b4b4"></path></g></g></svg>