<svg xmlns="http://www.w3.org/2000/svg" width="49.168" height="38.876" viewBox="0 0 49.168 38.876"><path d="M48.849,79.845a.723.723,0,0,0-1,.191,5.109,5.109,0,0,1-8.35,0,.727.727,0,0,0-1.2,0,5.355,5.355,0,0,1-4.17,2.163,5.3,5.3,0,0,1-4.048-2V69.023H48.445a.722.722,0,1,0,0-1.443h-5.8V62.32a8.714,8.714,0,0,0-8.551-8.736A8.662,8.662,0,0,0,26.076,58.8a8.662,8.662,0,0,0-7.813-5.214h-.086a8.645,8.645,0,0,0-8.635,8.636V67.58H.775a.722.722,0,1,0,0,1.443H9.542v2.85a.722.722,0,0,0,1.443,0V62.219a7.2,7.2,0,0,1,7.264-7.192A7.266,7.266,0,0,1,25.37,62.32v5.26H23.546V62.219a5.393,5.393,0,0,0-5.275-5.367h-.092a5.284,5.284,0,0,0-3.725,1.54A5.52,5.52,0,0,0,12.81,62.3V81.67A5.641,5.641,0,0,1,10.985,80.2V74.759a.722.722,0,1,0-1.443,0V80.2a5.3,5.3,0,0,1-4.048,2,5.326,5.326,0,0,1-4.174-2.163.722.722,0,0,0-1.2.805,6.8,6.8,0,0,0,5.372,2.8,6.652,6.652,0,0,0,4.773-2.087,6.5,6.5,0,0,0,9.543,0,6.5,6.5,0,0,0,9.546,0,6.5,6.5,0,0,0,9.543,0,6.651,6.651,0,0,0,4.773,2.086,6.8,6.8,0,0,0,5.372-2.8.72.72,0,0,0-.194-1Zm-34.6-5.807H25.37v2.021H14.253ZM25.37,72.594H14.253V69.023H25.37Zm-9.9-13.174a3.85,3.85,0,0,1,2.78-1.125A3.943,3.943,0,0,1,22.1,62.219V67.58h-7.85V62.3A4.067,4.067,0,0,1,15.466,59.42Zm4.942,20.618a.728.728,0,0,0-1.2,0A5.315,5.315,0,0,1,15.04,82.2a4.963,4.963,0,0,1-.787-.063V77.5H25.37v4.636a4.968,4.968,0,0,1-.788.063,5.325,5.325,0,0,1-4.174-2.163Zm6.405,1.632V62.219a7.2,7.2,0,0,1,7.263-7.192A7.266,7.266,0,0,1,41.2,62.32v5.26H39.374v-1.6a.722.722,0,1,0-1.443,0v1.6h-7.85V62.3a4.068,4.068,0,0,1,1.213-2.881,3.847,3.847,0,0,1,2.78-1.125,3.943,3.943,0,0,1,3.857,3.924v.87a.722.722,0,0,0,1.443,0v-.87A5.393,5.393,0,0,0,34.1,56.852h-.092a5.285,5.285,0,0,0-3.725,1.54A5.52,5.52,0,0,0,28.638,62.3V80.2A5.636,5.636,0,0,1,26.813,81.67Z" transform="translate(0.001 -53.583)" fill="#b4b4b4"></path><path d="M64.745,420.022a5.326,5.326,0,0,1-4.174-2.163.728.728,0,0,0-1.2,0,5.109,5.109,0,0,1-8.35,0,.722.722,0,0,0-1.2.805,6.794,6.794,0,0,0,5.372,2.8,6.652,6.652,0,0,0,4.773-2.087,6.652,6.652,0,0,0,4.773,2.087.722.722,0,0,0,0-1.443Z" transform="translate(-44.93 -382.589)" fill="#b4b4b4"></path><path d="M250.846,417.679a.723.723,0,0,0-1,.192,5.106,5.106,0,0,1-8.346,0,.727.727,0,0,0-1.2,0,5.109,5.109,0,0,1-8.349,0,.728.728,0,0,0-1.2,0,5.618,5.618,0,0,1-1.662,1.478.722.722,0,0,0,.728,1.247,7.255,7.255,0,0,0,1.532-1.2,6.5,6.5,0,0,0,9.547,0,6.652,6.652,0,0,0,4.773,2.087,6.784,6.784,0,0,0,5.369-2.8A.72.72,0,0,0,250.846,417.679Z" transform="translate(-206.77 -382.603)" fill="#b4b4b4"></path></svg>