<svg xmlns="http://www.w3.org/2000/svg" width="49.631" height="29.886" viewBox="0 0 49.631 29.886"><path d="M48.52,105.315l-2.478-.4v-2.5a1.32,1.32,0,0,0-1.318-1.318H17.02a.732.732,0,0,0,0,1.465h7.157V114.24H7.247l-1.335-8.356a1.315,1.315,0,0,0-.672-.948v-2.374h8.85a.732.732,0,0,0,0-1.465h-9a1.32,1.32,0,0,0-1.318,1.318v2.474l-2.665.426a1.32,1.32,0,0,0-1.094,1.51l1.965,12.3a1.312,1.312,0,0,0,1.3,1.11h.128v1.74A1.32,1.32,0,0,0,4.731,123.3H6.578L4.9,129.31a1.318,1.318,0,0,0,1.27,1.673H7.675a1.326,1.326,0,0,0,1.232-.849l2.606-6.837H29.547a.732.732,0,0,0,0-1.465H4.877v-1.593h40.1v1.593h-12.5a.732.732,0,1,0,0,1.465h5.829l2.606,6.837a1.326,1.326,0,0,0,1.232.849h1.508a1.318,1.318,0,0,0,1.27-1.673L43.24,123.3h1.885a1.32,1.32,0,0,0,1.318-1.318v-1.74h.4a.733.733,0,0,0,.723-.617l2.044-12.8a1.32,1.32,0,0,0-1.094-1.51Zm-40.946,24.2H6.36L8.1,123.3H9.945Zm35.884,0H42.244L39.873,123.3h1.846ZM25.642,102.562H44.578v2.288a1.319,1.319,0,0,0-.859,1.033l-1.335,8.356H25.642Zm20.58,16.212H3.409L1.486,106.739l3-.48,1.332,8.335a1.313,1.313,0,0,0,1.3,1.11H42.509a1.313,1.313,0,0,0,1.3-1.11l1.332-8.335,3,.48Z" transform="translate(0 -101.097)" fill="#b4b4b4"></path></svg>