<svg xmlns="http://www.w3.org/2000/svg" width="32.891" height="32.891" viewBox="0 0 32.891 32.891"><path d="M.322.321A1.092,1.092,0,0,0,0,1.1V6.234a.8.8,0,1,0,1.609,0V2.747l7.24,7.24A.8.8,0,1,0,9.987,8.849l-7.24-7.24H6.234A.8.8,0,1,0,6.234,0H1.1A1.091,1.091,0,0,0,.322.321Z" transform="translate(0 0.001)" fill="#b4b4b4"></path><path d="M362.771,362.77a1.092,1.092,0,0,1-.777.322h-5.136a.8.8,0,1,1,0-1.609h3.487l-7.24-7.24a.8.8,0,0,1,1.138-1.138l7.24,7.24v-3.487a.8.8,0,0,1,1.609,0v5.136A1.091,1.091,0,0,1,362.771,362.77Z" transform="translate(-330.202 -330.201)" fill="#b4b4b4"></path><path d="M.321,362.77a1.092,1.092,0,0,0,.777.322H6.234a.8.8,0,1,0,0-1.609H2.747l7.24-7.24a.8.8,0,1,0-1.138-1.138l-7.24,7.24v-3.487a.8.8,0,0,0-1.609,0v5.136a1.091,1.091,0,0,0,.322.777Z" transform="translate(0.001 -330.201)" fill="#b4b4b4"></path><path d="M362.77.321a1.092,1.092,0,0,1,.322.777V6.234a.8.8,0,1,1-1.609,0V2.747l-7.24,7.24a.8.8,0,1,1-1.138-1.138l7.24-7.24h-3.487a.8.8,0,0,1,0-1.609h5.136a1.091,1.091,0,0,1,.777.322Z" transform="translate(-330.201 0.001)" fill="#b4b4b4"></path></svg>