<svg xmlns="http://www.w3.org/2000/svg" width="36.814" height="42.086" viewBox="0 0 36.814 42.086"><g transform="translate(0)"><path d="M67.6,0H33.34a1.277,1.277,0,0,0-1.275,1.275V2.593a1.276,1.276,0,0,0,.659,1.116V40.151a1.936,1.936,0,0,0,1.934,1.934H66.286a1.937,1.937,0,0,0,1.934-1.934V3.709a1.276,1.276,0,0,0,.659-1.116V1.275A1.277,1.277,0,0,0,67.6,0Zm-.616,18.2-3.635,4.847c-4.78-.254-8.934-2.719-12.954-5.105-3.245-1.926-6.311-3.746-9.677-4.489a.616.616,0,1,0-.266,1.2c3.173.7,6.155,2.471,9.313,4.346,4.243,2.518,8.631,5.123,13.862,5.291h.02a.617.617,0,0,0,.493-.247l2.844-3.792V40.151a.7.7,0,0,1-.7.7H34.658a.7.7,0,0,1-.7-.7V14.964a11.791,11.791,0,0,1,3.984-.614.616.616,0,1,0,.024-1.233,12.917,12.917,0,0,0-4.008.554V12.325c5.868-1.1,10.589.474,15.579,2.137,4.243,1.414,8.6,2.868,13.974,2.867a30.6,30.6,0,0,0,3.477-.2ZM37.91,10.722V7.206a.7.7,0,0,1,.7-.7h9.225a.7.7,0,0,1,.7.7v3.954a.7.7,0,0,1-.7.7h-2.46A27.6,27.6,0,0,0,37.91,10.722ZM67.646,2.593a.042.042,0,0,1-.042.042H65.627a.616.616,0,1,0,0,1.233h1.36V15.887c-6.841.811-12.035-.919-17.062-2.594L48.7,12.887a1.936,1.936,0,0,0,1.066-1.728V7.206a1.937,1.937,0,0,0-1.934-1.934H38.612a1.937,1.937,0,0,0-1.934,1.934v3.548a22.6,22.6,0,0,0-2.721.318v-7.2H62.992a.616.616,0,0,0,0-1.233H33.34a.042.042,0,0,1-.042-.042V1.275h0a.042.042,0,0,1,.042-.042H67.6a.042.042,0,0,1,.042.042Z" transform="translate(-32.065)" fill="#b4b4b4"></path></g><g transform="translate(19.108 5.271)"><path d="M275.691,64.129h-9.225a1.936,1.936,0,0,0-1.934,1.934v3.954a1.936,1.936,0,0,0,1.934,1.934h9.225a1.936,1.936,0,0,0,1.934-1.934V66.063A1.937,1.937,0,0,0,275.691,64.129Zm.7,5.888a.7.7,0,0,1-.7.7h-9.225a.7.7,0,0,1-.7-.7V66.063a.7.7,0,0,1,.7-.7h9.225a.7.7,0,0,1,.7.7Z" transform="translate(-264.532 -64.129)" fill="#b4b4b4"></path></g></svg>