<svg xmlns="http://www.w3.org/2000/svg" width="33.584" height="41.733" viewBox="0 0 33.584 41.733"><g transform="translate(0 0)"><path d="M82.909,24.564,79.2,19.648a2.25,2.25,0,0,0,1.982-1.993,3.385,3.385,0,0,0-.56-1.5l-3.261-4.32a1.918,1.918,0,0,0,1.275-1.322.631.631,0,0,0,.013-.066c0-.03.007-.06.01-.091a.612.612,0,0,0,0-.107,2.713,2.713,0,0,0-.43-1.17l-.017-.024L76.186,6.379a.612.612,0,0,0-.978.738c2.077,2.751,2.139,2.76,2.216,3.161-.2.5-.668.415-1.235.415a.613.613,0,0,0-.489.981c4.118,5.454,4.155,5.376,4.25,6.015a1.087,1.087,0,0,1-1.079.752h-.89a.613.613,0,0,0-.489.981l4.427,5.863a2.984,2.984,0,0,1,.429,1.108,1.509,1.509,0,0,1-1.494,1.069H72.048l-2.757-3.651a2.132,2.132,0,0,0,1.536-1.137,1.965,1.965,0,0,0,.168-.427.638.638,0,0,0,.012-.064c0-.034.009-.068.012-.1,0-.018,0-.037,0-.055s0-.037,0-.055c-.089-1.011-.4-1.218-3.389-5.182a1.747,1.747,0,0,0,1.124-1.354,2.317,2.317,0,0,0-.414-1.212L64.612,9.284c6.335-8.39,6.04-8.025,6.117-8.056a42.525,42.525,0,0,1,2.754,3.6.612.612,0,0,0,.978-.738L71.807.578a1.294,1.294,0,0,0-2.156,0l-5.806,7.69-1.25-1.656a1.224,1.224,0,0,0-2.035,0c-.014.018-5.75,7.615-5.763,7.634a2.264,2.264,0,0,0-.4,1.188,1.744,1.744,0,0,0,1.124,1.354c-.012.017-2.879,3.813-2.891,3.83a2.57,2.57,0,0,0-.473,1.63,2.167,2.167,0,0,0,1.7,1.564c-.012.017-3.273,4.334-3.285,4.352A3.223,3.223,0,0,0,50,30a2.528,2.528,0,0,0,2.49,1.938h7.25v6.115h-4a1.837,1.837,0,1,0,0,3.675h9.609a.612.612,0,0,0,0-1.225H55.741a.612.612,0,0,1,0-1.225h21.8a.612.612,0,0,1,0,1.225H68.209a.612.612,0,1,0,0,1.225h9.329a1.837,1.837,0,0,0,0-3.675H72.579V31.1a2.113,2.113,0,0,0,.59-1.328,3.381,3.381,0,0,0-.305-1.086h7.99a2.752,2.752,0,0,0,2.693-2.034A3.443,3.443,0,0,0,82.909,24.564ZM62.189,38.058H60.964V31.943h1.225Zm6.715,0H63.414V31.943H68.9Zm2.45,0H70.13V31.943a4.514,4.514,0,0,0,1.225-.085v6.2Zm-.689-7.34H52.489a1.3,1.3,0,0,1-1.277-.9,2.624,2.624,0,0,1,.372-.952l3.972-5.26a.613.613,0,0,0-.489-.981h-.8a.916.916,0,0,1-.9-.617c.088-.546.091-.443,3.8-5.356a.612.612,0,0,0,.06-.642c-.351-.7-1.3.016-1.591-.658.074-.343-.274.186,5.9-8a.261.261,0,0,1,.04-.043c.082.068,5.869,7.684,5.944,8.041-.172.394-.551.319-1.043.319a.613.613,0,0,0-.489.981c3.725,4.933,3.714,4.813,3.8,5.356-.422,1.176-1.85.15-2.251.956a.612.612,0,0,0,.059.642l3.973,5.263a2.63,2.63,0,0,1,.37.948A1.3,1.3,0,0,1,70.665,30.718Z" transform="translate(-49.988 0)" fill="#b4b4b4"></path></g></svg>