<svg xmlns="http://www.w3.org/2000/svg" width="32.819" height="47.611" viewBox="0 0 32.819 47.611"><g transform="translate(0.6 0.6)"><g transform="translate(0 0)"><g transform="translate(0 0)"><path d="M115.52,54.511H89.5a3.405,3.405,0,0,1-3.4-3.4V18.659a.6.6,0,0,1,1.2,0V51.11a2.2,2.2,0,0,0,2.2,2.2H115.52a2.2,2.2,0,0,0,2.2-2.2V10.3a2.2,2.2,0,0,0-2.2-2.2H89.5a2.2,2.2,0,0,0-2.2,2.2v5.556a.6.6,0,0,1-1.2,0V10.3a3.405,3.405,0,0,1,3.4-3.4H115.52a3.405,3.405,0,0,1,3.4,3.4V51.11A3.405,3.405,0,0,1,115.52,54.511Z" transform="translate(-86.702 -7.5)" fill="#b4b4b4"></path><path d="M145.807,76.685H120.5a.6.6,0,0,1-.6-.6V42a.6.6,0,0,1,.6-.6h25.307a.6.6,0,0,1,.6.6V69.083a.6.6,0,1,1-1.2,0V42.6H121.1V75.485h24.107v-3.6a.6.6,0,1,1,1.2,0v4.2A.6.6,0,0,1,145.807,76.685Z" transform="translate(-117.344 -38.778)" fill="#b4b4b4"></path><g transform="translate(6.996 6.961)"><g transform="translate(0.163 22.968)"><path d="M17.3.6H0A.6.6,0,0,1-.6,0,.6.6,0,0,1,0-.6H17.3a.6.6,0,0,1,.6.6A.6.6,0,0,1,17.3.6Z" fill="#b4b4b4"></path><path d="M17.3.6H0A.6.6,0,0,1-.6,0,.6.6,0,0,1,0-.6H17.3a.6.6,0,0,1,.6.6A.6.6,0,0,1,17.3.6Z" transform="translate(0 3.268)" fill="#b4b4b4"></path></g><path d="M163.43,141.693h3.794a.6.6,0,0,1,.6.6v6.242a4.309,4.309,0,0,1-2.5,7.82c-.1,0-.209,0-.313-.011a4.309,4.309,0,0,1-2.184-7.809v-6.242A.6.6,0,0,1,163.43,141.693Zm3.194,1.2H164.03v5.713a1.067,1.067,0,0,1-.464.879,3.109,3.109,0,0,0,1.532,5.663c.076.005.153.008.228.008a3.109,3.109,0,0,0,1.76-5.672,1.067,1.067,0,0,1-.463-.879Z" transform="translate(-161.618 -136.666)" fill="#b4b4b4"></path><g transform="translate(1.812)"><path d="M1.276.6H0A.6.6,0,0,1-.6,0,.6.6,0,0,1,0-.6H1.276a.6.6,0,0,1,.6.6A.6.6,0,0,1,1.276.6Z" transform="translate(0 10.607)" fill="#b4b4b4"></path><path d="M1.276.6H0A.6.6,0,0,1-.6,0,.6.6,0,0,1,0-.6H1.276a.6.6,0,0,1,.6.6A.6.6,0,0,1,1.276.6Z" transform="translate(0 8.117)" fill="#b4b4b4"></path><g transform="translate(0)"><path d="M182.918,81.441a2.5,2.5,0,0,1,2.5,2.5v3.729a.6.6,0,0,1-.6.6h-3.794a.6.6,0,0,1-.6-.6V83.938A2.5,2.5,0,0,1,182.918,81.441Zm1.3,5.626V83.938a1.3,1.3,0,1,0-2.594,0v3.129Z" transform="translate(-181.021 -82.041)" fill="#b4b4b4"></path></g><path d="M1.276.6H0A.6.6,0,0,1-.6,0,.6.6,0,0,1,0-.6H1.276a.6.6,0,0,1,.6.6A.6.6,0,0,1,1.276.6Z" transform="translate(0 3.136)" fill="#b4b4b4"></path></g><g transform="translate(10.604 13.888)"><path d="M292.147,236.095a2.967,2.967,0,1,1,2.1-5.064.6.6,0,0,1-.849.849,1.767,1.767,0,1,0,0,2.5.6.6,0,1,1,.849.849A2.958,2.958,0,0,1,292.147,236.095Z" transform="translate(-288.415 -230.762)" fill="#b4b4b4"></path><path fill="#b4b4b4"></path></g></g></g></g></g></svg>