<svg xmlns="http://www.w3.org/2000/svg" xmlns:xlink="http://www.w3.org/1999/xlink" width="73.319" height="73.319" viewBox="0 0 73.319 73.319"><defs><clipPath id="a"><path d="M0-682.665H73.319v73.319H0Z" transform="translate(0 682.665)"></path></clipPath></defs><g transform="translate(0 682.665)"><g transform="translate(6.799 -642.794)"><path d="M8.48,8.536a1,1,0,0,1-.664-.252L-.664.748A1,1,0,0,1-.748-.664,1,1,0,0,1,.664-.748l8.48,7.536A1,1,0,0,1,8.48,8.536Z" fill="#ed7d3a"></path></g><g transform="translate(0 -682.665)"><g clip-path="url(#a)"><g transform="translate(1.074 11.599)"><path d="M-205.39-185.774a1,1,0,0,1-.664-.253l-1.9-1.686a1,1,0,0,1-.336-.747v-23.184a1,1,0,0,1,.622-.926,1,1,0,0,1,1.092.226l22.263,22.731a1,1,0,0,1-.015,1.414,1,1,0,0,1-1.414-.015l-20.548-20.98v20.285l1.561,1.387a1,1,0,0,1,.083,1.412A1,1,0,0,1-205.39-185.774Z" transform="translate(207.286 211.643)" fill="#ed7d3a"></path></g><g transform="translate(49.764 11.599)"><path d="M-121.507-249.878a1,1,0,0,1-.747-.335,1,1,0,0,1,.082-1.412l7.525-6.7v-20.285l-20.766,21.2a1,1,0,0,1-1.414.015,1,1,0,0,1-.015-1.414l22.48-22.954a1,1,0,0,1,1.092-.226,1,1,0,0,1,.622.926v23.184a1,1,0,0,1-.335.747l-7.86,7A1,1,0,0,1-121.507-249.878Z" transform="translate(136.128 281.065)" fill="#ed7d3a"></path></g></g></g><g transform="translate(56.841 -637.519)"><path d="M0-26.926a1,1,0,0,1-.747-.335,1,1,0,0,1,.081-1.412l3.772-3.36a1,1,0,0,1,1.412.082,1,1,0,0,1-.082,1.412L.665-27.18A1,1,0,0,1,0-26.926Z" transform="translate(0 31.287)" fill="#ed7d3a"></path></g><g transform="translate(0 -682.665)"><g clip-path="url(#a)"><g transform="translate(44.212 49.78)"><path d="M-31.123,11.116a3.878,3.878,0,0,1-2.76-1.143l-5.149-5.149a1,1,0,0,1,0-1.414,1,1,0,0,1,1.414,0l5.149,5.149a1.891,1.891,0,0,0,1.346.558,1.891,1.891,0,0,0,1.346-.558l.01-.01a1.906,1.906,0,0,0,0-2.692L-34.916.707a1,1,0,0,1,0-1.414,1,1,0,0,1,1.414,0l5.149,5.149a3.908,3.908,0,0,1,0,5.521l-.01.01A3.878,3.878,0,0,1-31.123,11.116Z" transform="translate(38.325)" fill="#ed7d3a"></path></g><g transform="translate(41.087 54.888)"><path d="M7.2-27.212a3.892,3.892,0,0,1-2.76-1.141L-.707-33.5a1,1,0,0,1,0-1.414,1,1,0,0,1,1.414,0l5.149,5.149a1.906,1.906,0,0,0,2.692,0l.005-.005.007-.007a1.906,1.906,0,0,0,0-2.689l-5.149-5.15a1,1,0,0,1,0-1.414,1,1,0,0,1,1.414,0l5.149,5.15a3.908,3.908,0,0,1,0,5.521l-.005.005-.008.008A3.891,3.891,0,0,1,7.2-27.212Z" transform="translate(0 38.327)" fill="#ed7d3a"></path></g><g transform="translate(40.447 58.557)"><path d="M1.48,11.114A3.891,3.891,0,0,1-1.28,9.973L-2.507,8.746a1,1,0,0,1,0-1.414,1,1,0,0,1,1.414,0L.134,8.559a1.906,1.906,0,0,0,2.69,0l.007-.007.005-.005a1.906,1.906,0,0,0,0-2.692L-2.314.707a1,1,0,0,1,0-1.414A1,1,0,0,1-.9-.707L4.25,4.442a3.908,3.908,0,0,1,0,5.518l-.007.007-.005.005A3.893,3.893,0,0,1,1.48,11.114Z" transform="translate(1.8)" fill="#ed7d3a"></path></g><g transform="translate(35.913 66.74)"><path d="M-40.4,6.5a3.891,3.891,0,0,1-2.76-1.141l-1.1-1.1a1,1,0,0,1,0-1.414,1,1,0,0,1,1.414,0l1.1,1.1a1.906,1.906,0,0,0,2.692,0l.01-.01a1.891,1.891,0,0,0,.557-1.346,1.891,1.891,0,0,0-.558-1.346l-.538-.538a1,1,0,0,1,0-1.414,1,1,0,0,1,1.414,0l.538.538a3.878,3.878,0,0,1,1.143,2.76,3.878,3.878,0,0,1-1.143,2.76l-.01.01A3.892,3.892,0,0,1-40.4,6.5Z" transform="translate(43.552)" fill="#ed7d3a"></path></g><g transform="translate(15.536 37.427)"><path d="M-67.242,17.153a1,1,0,0,1-.707-.293l-1.94-1.94a6.892,6.892,0,0,1,0-9.736L-64-.707a1,1,0,0,1,1.414,0,1,1,0,0,1,0,1.414L-68.474,6.6a4.89,4.89,0,0,0,0,6.907l1.94,1.94a1,1,0,0,1,0,1.414A1,1,0,0,1-67.242,17.153Z" transform="translate(70.905)" fill="#ed7d3a"></path></g><g transform="translate(40.374 41.826)"><path d="M-93.485-92.485a1,1,0,0,1-.707-.293l-11.248-11.248a1,1,0,0,1,0-1.414,1,1,0,0,1,1.414,0l11.248,11.248a1,1,0,0,1,0,1.414A1,1,0,0,1-93.485-92.485Z" transform="translate(104.733 104.733)" fill="#ed7d3a"></path></g><g transform="translate(20.019 54.461)"><path d="M-86.04-8.937a3.885,3.885,0,0,1,2.765,1.145A3.885,3.885,0,0,1-82.13-5.026a3.885,3.885,0,0,1-1.145,2.765l-5.14,5.14A3.873,3.873,0,0,1-91.172,4.02a3.873,3.873,0,0,1-2.757-1.142l-.016-.016a3.9,3.9,0,0,1,0-5.514l5.14-5.14A3.885,3.885,0,0,1-86.04-8.937ZM-91.172,2.02a1.887,1.887,0,0,0,1.343-.556l5.14-5.14a1.9,1.9,0,0,0,.56-1.351,1.9,1.9,0,0,0-.56-1.351,1.9,1.9,0,0,0-1.351-.56,1.9,1.9,0,0,0-1.351.56l-5.14,5.14a1.9,1.9,0,0,0,0,2.686l.016.016A1.887,1.887,0,0,0-91.172,2.02Z" transform="translate(94.087 7.937)" fill="#ed7d3a"></path></g><g transform="translate(25.439 57.748)"><path d="M-81.984-8.873a3.88,3.88,0,0,1,2.752,1.135,3.878,3.878,0,0,1,1.153,2.76,3.877,3.877,0,0,1-1.138,2.764l-4.661,4.678A3.884,3.884,0,0,1-86.643,3.61a3.886,3.886,0,0,1-2.766-1.146A3.885,3.885,0,0,1-90.554-.3a3.885,3.885,0,0,1,1.145-2.765l4.663-4.663A3.878,3.878,0,0,1-81.984-8.873ZM-86.643,1.61a1.9,1.9,0,0,0,1.349-.559l4.659-4.677a1.89,1.89,0,0,0,.555-1.348,1.89,1.89,0,0,0-.561-1.345,1.894,1.894,0,0,0-1.344-.555,1.892,1.892,0,0,0-1.346.558l-4.663,4.663A1.9,1.9,0,0,0-88.554-.3a1.9,1.9,0,0,0,.56,1.351A1.9,1.9,0,0,0-86.643,1.61Z" transform="translate(89.554 7.873)" fill="#ed7d3a"></path></g><g transform="translate(16.726 49.515)"><path d="M-86.018-8.918a3.878,3.878,0,0,1,2.76,1.143l.01.01A3.878,3.878,0,0,1-82.1-5a3.878,3.878,0,0,1-1.143,2.76L-88.4,2.905a3.867,3.867,0,0,1-2.752,1.14A3.867,3.867,0,0,1-93.9,2.905l-.026-.026a3.9,3.9,0,0,1,0-5.5l5.149-5.149A3.878,3.878,0,0,1-86.018-8.918ZM-91.15,2.045a1.88,1.88,0,0,0,1.338-.554l5.149-5.149A1.891,1.891,0,0,0-84.1-5a1.891,1.891,0,0,0-.558-1.346l-.01-.01a1.891,1.891,0,0,0-1.346-.558,1.891,1.891,0,0,0-1.346.558l-5.149,5.149a1.894,1.894,0,0,0,0,2.676l.026.026A1.88,1.88,0,0,0-91.15,2.045Z" transform="translate(94.068 7.918)" fill="#ed7d3a"></path></g><g transform="translate(30.231 61.187)"><path d="M-81.984-8.879A3.878,3.878,0,0,1-79.24-7.751l.009.009a3.877,3.877,0,0,1,1.152,2.759,3.877,3.877,0,0,1-1.138,2.764l-4.661,4.678A3.884,3.884,0,0,1-86.643,3.6a3.885,3.885,0,0,1-2.766-1.146A3.885,3.885,0,0,1-90.554-.306a3.885,3.885,0,0,1,1.145-2.765l4.664-4.664A3.878,3.878,0,0,1-81.984-8.879Zm1.349,2.561-.008-.008a1.891,1.891,0,0,0-1.341-.553,1.891,1.891,0,0,0-1.346.557l-4.664,4.664a1.9,1.9,0,0,0-.56,1.351,1.9,1.9,0,0,0,.56,1.351,1.9,1.9,0,0,0,1.351.56,1.9,1.9,0,0,0,1.349-.559l4.659-4.677a1.89,1.89,0,0,0,.555-1.348A1.89,1.89,0,0,0-80.635-6.318Z" transform="translate(89.554 7.879)" fill="#ed7d3a"></path></g><g transform="translate(23.052 31.166)"><path d="M-158.372-77.206a1,1,0,0,1-.707-.293,1,1,0,0,1,0-1.414l2.875-2.875a6.018,6.018,0,0,0,0-8.5l-3.924-3.924a1,1,0,0,1-.069-.076c-.3-.363-.576-.721-.848-1.066-2.231-2.84-3.7-4.716-8.405-4.07L-184.884-97.3a2.235,2.235,0,0,0-1.486.869,2.226,2.226,0,0,0-.435,1.661,2.23,2.23,0,0,0,.87,1.483,2.238,2.238,0,0,0,1.671.434l7.58-1.06a3.562,3.562,0,0,1,3.089,1.106,6.7,6.7,0,0,0,5.8,2.064,1,1,0,0,1,1.127.854,1,1,0,0,1-.854,1.127,8.7,8.7,0,0,1-7.539-2.68,1.56,1.56,0,0,0-1.351-.49l-7.58,1.06a4.225,4.225,0,0,1-3.153-.819,4.217,4.217,0,0,1-1.646-2.8,4.213,4.213,0,0,1,.822-3.144,4.222,4.222,0,0,1,2.806-1.641l15.433-2.126a9.433,9.433,0,0,1,6.448,1.008,14.844,14.844,0,0,1,3.8,3.808c.256.326.521.663.794,1l3.887,3.887a8.02,8.02,0,0,1,0,11.329l-2.875,2.875A1,1,0,0,1-158.372-77.206Z" transform="translate(187.826 100.55)" fill="#ed7d3a"></path></g><g transform="translate(23.771 13.263)"><path d="M25.776,13.425H0a1,1,0,0,1-1-1V0A1,1,0,0,1,0-1,1,1,0,0,1,1,0V11.425H24.776V0a1,1,0,0,1,1-1,1,1,0,0,1,1,1V12.425A1,1,0,0,1,25.776,13.425Z" fill="#ed7d3a"></path></g><g transform="translate(30.518 15.036)"><path d="M-102.351-87.528h-12.315a1,1,0,0,1-1-1V-98.607a1.575,1.575,0,0,1,1.573-1.573h11.17a1.575,1.575,0,0,1,1.573,1.573v10.079A1,1,0,0,1-102.351-87.528Zm-11.315-2h10.315V-98.18h-10.315Z" transform="translate(114.666 99.18)" fill="#ed7d3a"></path></g><g transform="translate(19.475 1.074)"><path d="M-233.282-26.182a3.164,3.164,0,0,1-.833-.112,3.128,3.128,0,0,1-1.9-1.475,3.127,3.127,0,0,1-.3-2.39,3.127,3.127,0,0,1,1.475-1.9l15.036-8.592a3.161,3.161,0,0,1,3.124,0l7.036,4.021a1,1,0,0,1,.372,1.364,1,1,0,0,1-1.364.372l-7.036-4.021a1.153,1.153,0,0,0-1.139,0l-15.036,8.592a1.14,1.14,0,0,0-.538.695,1.14,1.14,0,0,0,.111.872,1.141,1.141,0,0,0,.695.538,1.139,1.139,0,0,0,.871-.111l13.97-7.983a1,1,0,0,1,.992,0l13.97,7.983a1.131,1.131,0,0,0,.568.152,1.152,1.152,0,0,0,1-.579,1.14,1.14,0,0,0,.111-.872,1.14,1.14,0,0,0-.538-.695l-3.6-2.059a1,1,0,0,1-.372-1.364,1,1,0,0,1,1.364-.372l3.6,2.059a3.127,3.127,0,0,1,1.475,1.9,3.127,3.127,0,0,1-.3,2.39,3.157,3.157,0,0,1-2.735,1.586,3.149,3.149,0,0,1-1.56-.415l-13.474-7.7-13.474,7.7A3.128,3.128,0,0,1-233.282-26.182Z" transform="translate(235.435 40.071)" fill="#ed7d3a"></path></g><g transform="translate(20.907 25.688)"><path d="M31.5,1H0A1,1,0,0,1-1,0,1,1,0,0,1,0-1H31.5a1,1,0,0,1,1,1A1,1,0,0,1,31.5,1Z" fill="#ed7d3a"></path></g></g></g></g></svg>