<svg xmlns="http://www.w3.org/2000/svg" width="78" height="77.75" viewBox="0 0 78 77.75"><g transform="translate(0 -0.82)"><g transform="translate(54.923 55.653)"><path d="M374.612,360.836a1.145,1.145,0,0,0-1.248.248L360.852,373.6a1.145,1.145,0,0,0,.81,1.954h12.511a1.145,1.145,0,0,0,1.145-1.145V361.894A1.145,1.145,0,0,0,374.612,360.836Zm-10.186,12.424,8.6-8.6v8.6Z" transform="translate(-360.517 -360.749)" fill="#ed7d3a"></path></g><g transform="translate(0 0.82)"><path d="M77.293,37.39a1.145,1.145,0,0,0-1.248.248l-3.429,3.429V17.753a1.145,1.145,0,0,0-1.145-1.145h-8.8l3.193-3.193v0l3.077-3.077a3.491,3.491,0,0,0,0-4.937L65.389,1.842a3.491,3.491,0,0,0-4.937,0L57.374,4.92l-3.72,3.72-7.968,7.968H10.149V5.282A1.145,1.145,0,0,0,9,4.137a9.015,9.015,0,0,0-9,9V61.768a1.148,1.148,0,0,0,.027.246,8.671,8.671,0,0,0,8.645,8.013H43.656l-6.589,6.589a1.145,1.145,0,0,0,.81,1.954H76.855A1.145,1.145,0,0,0,78,77.425V38.447A1.145,1.145,0,0,0,77.293,37.39ZM62.071,3.461a1.2,1.2,0,0,1,1.7,0l3.558,3.558a1.2,1.2,0,0,1,0,1.7l-2.269,2.269L59.8,5.73ZM58.183,7.349l5.257,5.256-2.1,2.1L56.083,9.45ZM75.711,51.312H73.6a1.145,1.145,0,0,0,0,2.29h2.112v3.45H73.6a1.145,1.145,0,0,0,0,2.29h2.112v3.45H73.6a1.145,1.145,0,0,0,0,2.29h2.112v3.45H73.6a1.145,1.145,0,0,0,0,2.29h2.112v5.46H40.641L52.205,64.717A1.145,1.145,0,0,0,50.586,63.1l-4.64,4.64H8.673A6.347,6.347,0,0,1,2.3,61.561q.01-.326.051-.647v0q.019-.152.046-.3l.006-.034q.024-.134.054-.267l.017-.074q.026-.112.056-.224c.011-.04.022-.08.034-.12.017-.058.034-.116.053-.174s.038-.114.058-.171c.014-.04.028-.08.043-.119.028-.075.057-.149.088-.223l.026-.064c.039-.091.08-.182.123-.271l.005-.011a6.74,6.74,0,0,1,4.685-3.663l.017,0c.095-.019.19-.036.287-.051l.048-.008c.087-.013.175-.024.263-.034l.074-.009c.085-.009.17-.014.256-.019l.081-.006q.168-.008.339-.009a1.145,1.145,0,0,0,1.145-1.145v-8.3a1.145,1.145,0,0,0-2.29,0v7.228a8.942,8.942,0,0,0-5.143,2.489c-.149.145-.29.3-.427.45V13.142a6.726,6.726,0,0,1,5.57-6.617v34.5h0a1.145,1.145,0,1,0,2.29,0h0V18.9H43.4l-6.329,6.329a1.145,1.145,0,0,0,1.619,1.619l8.283-8.283h0l7.493-7.493,5.256,5.257-.617.617h0L36.017,40.028l-5.256-5.256,4.55-4.55A1.145,1.145,0,0,0,33.692,28.6l-5.36,5.36a1.149,1.149,0,0,0-.081.09c-.008.01-.016.021-.024.032s-.032.043-.047.066l-.024.04c-.013.021-.025.043-.036.065s-.014.029-.021.044-.02.045-.028.068-.007.016-.01.024l-2.23,6.318-1.521,4.308a1.158,1.158,0,0,0-.045.174H20.459a1.145,1.145,0,0,0,0,2.29h31.7a1.145,1.145,0,0,0,0-2.29H29.417L36.4,42.727l.017-.007c.027-.01.054-.021.08-.033l.031-.014c.027-.014.054-.029.081-.045l.026-.015c.028-.018.054-.037.081-.057l.02-.015a1.15,1.15,0,0,0,.093-.083L60.386,18.9h9.941V43.356L53.951,59.733a1.145,1.145,0,0,0,0,1.619,1.17,1.17,0,0,0,.087.079,1.144,1.144,0,0,0,1.532-.079h0l20.14-20.141ZM33.923,41.172,30.644,42.33l-2.185-2.185,1.158-3.279Z" transform="translate(0 -0.82)" fill="#ed7d3a"></path></g></g></svg>