<svg xmlns="http://www.w3.org/2000/svg" xmlns:xlink="http://www.w3.org/1999/xlink" width="75.998" height="75.998" viewBox="0 0 75.998 75.998"><defs><clipPath id="a"><path d="M0-682.665H76v76H0Z" transform="translate(0 682.665)"></path></clipPath></defs><g transform="translate(0 682.665)"><g transform="translate(0 -682.665)"><g clip-path="url(#a)"><g transform="translate(35.54 1.113)"><path d="M-41.718-133.95a3.463,3.463,0,0,1-3.459-3.459v-14.754a3.463,3.463,0,0,1,3.459-3.459,3.463,3.463,0,0,1,3.459,3.459v14.754A3.463,3.463,0,0,1-41.718-133.95Zm0-19.672a1.461,1.461,0,0,0-1.459,1.459v14.754a1.461,1.461,0,0,0,1.459,1.459,1.461,1.461,0,0,0,1.459-1.459v-14.754A1.461,1.461,0,0,0-41.718-153.622Z" transform="translate(44.177 154.622)" fill="#2f3d7e"></path></g><g transform="translate(13.408 1.113)"><path d="M-41.719-133.95a3.463,3.463,0,0,1-3.459-3.459v-14.754a3.463,3.463,0,0,1,3.459-3.459,3.463,3.463,0,0,1,3.459,3.459v14.754A3.463,3.463,0,0,1-41.719-133.95Zm0-19.672a1.461,1.461,0,0,0-1.459,1.459v14.754a1.461,1.461,0,0,0,1.459,1.459,1.461,1.461,0,0,0,1.459-1.459v-14.754A1.461,1.461,0,0,0-41.719-153.622Z" transform="translate(44.179 154.622)" fill="#2f3d7e"></path></g><g transform="translate(18.327 3.572)"><path d="M-73.23,15.754H-90.444a1,1,0,0,1-1-1V0a1,1,0,0,1,1-1h10.069a1,1,0,0,1,1,1,1,1,0,0,1-1,1h-9.069V13.754H-74.23V1h-1.692a1,1,0,0,1-1-1,1,1,0,0,1,1-1h2.692a1,1,0,0,1,1,1V14.754A1,1,0,0,1-73.23,15.754Z" transform="translate(90.444)" fill="#2f3d7e"></path></g><g transform="translate(23.245 18.327)"><path d="M-58.889-97.149a1,1,0,0,1-1-1v-11.3h-5.377v11.3a1,1,0,0,1-1,1,1,1,0,0,1-1-1v-12.3a1,1,0,0,1,1-1h7.377a1,1,0,0,1,1,1v12.3A1,1,0,0,1-58.889-97.149Z" transform="translate(66.267 110.444)" fill="#2f3d7e"></path></g><g transform="translate(23.245 23.245)"><path d="M-58.889,1h-7.377a1,1,0,0,1-1-1,1,1,0,0,1,1-1h7.377a1,1,0,0,1,1,1A1,1,0,0,1-58.889,1Z" transform="translate(66.267)" fill="#2f3d7e"></path></g><g transform="translate(40.458 3.572)"><path d="M2.543-116.779H0a1,1,0,0,1-1-1v-14.754a1,1,0,0,1,1-1H2.543a3.379,3.379,0,0,1,3.375,3.375v10A3.379,3.379,0,0,1,2.543-116.779Zm-1.543-2H2.543a1.376,1.376,0,0,0,1.375-1.375v-10a1.376,1.376,0,0,0-1.375-1.375H1Z" transform="translate(0 132.533)" fill="#2f3d7e"></path></g><g transform="translate(8.49 3.572)"><path d="M-41.8-1h2.543a1,1,0,0,1,1,1V14.754a1,1,0,0,1-1,1H-41.8a3.379,3.379,0,0,1-3.375-3.375v-10A3.379,3.379,0,0,1-41.8-1Zm1.543,2H-41.8a1.376,1.376,0,0,0-1.375,1.375v10A1.376,1.376,0,0,0-41.8,13.754h1.543Z" transform="translate(44.177)" fill="#2f3d7e"></path></g><g transform="translate(19.302 28.163)"><path d="M-268.879-172.365a1.6,1.6,0,0,1-1.142-.473l-14.333-14.332-14.333,14.333a1.6,1.6,0,0,1-1.142.473,1.6,1.6,0,0,1-1.142-.473l-2.608-2.608a1.617,1.617,0,0,1,0-2.284l18.083-18.083a1.6,1.6,0,0,1,1.142-.473,1.6,1.6,0,0,1,1.142.473l18.083,18.083a1.617,1.617,0,0,1,0,2.284l-2.608,2.608A1.6,1.6,0,0,1-268.879-172.365Zm-33.012-4.223,2.063,2.063,14.333-14.333a1.6,1.6,0,0,1,1.142-.473,1.6,1.6,0,0,1,1.142.473l14.333,14.332,2.063-2.063-17.538-17.538Z" transform="translate(303.051 195.286)" fill="#2f3d7e"></path></g><g transform="translate(23.245 49.622)"><path d="M-235.559,26.263h-29.509a1,1,0,0,1-1-1V0a1,1,0,0,1,1-1,1,1,0,0,1,1,1V24.263h27.509V0a1,1,0,0,1,1-1,1,1,0,0,1,1,1V25.263A1,1,0,0,1-235.559,26.263Z" transform="translate(265.067)" fill="#2f3d7e"></path></g><g transform="translate(6.031 47.835)"><path d="M-50.932-214.927h-3.921a3.463,3.463,0,0,1-3.459-3.459v-24.59a1,1,0,0,1,1-1,1,1,0,0,1,1,1v24.59a1.461,1.461,0,0,0,1.459,1.459h3.921a1,1,0,0,1,1,1A1,1,0,0,1-50.932-214.927Z" transform="translate(57.312 242.977)" fill="#2f3d7e"></path></g><g transform="translate(16.865 74.885)"><path d="M-50.929,1h-6.38a1,1,0,0,1-1-1,1,1,0,0,1,1-1h6.38a1,1,0,0,1,1,1A1,1,0,0,1-50.929,1Z" transform="translate(57.309)" fill="#2f3d7e"></path></g><g transform="translate(6.031 69.967)"><path d="M-137.409,1h-17.213a1,1,0,0,1-1-1,1,1,0,0,1,1-1h17.213a1,1,0,0,1,1,1A1,1,0,0,1-137.409,1Z" transform="translate(154.622)" fill="#2f3d7e"></path></g><g transform="translate(10.949 52.753)"><path d="M-49.41-77.52h-5A2.19,2.19,0,0,1-56.6-79.707v-7.461a2.19,2.19,0,0,1,2.187-2.187h5a2.19,2.19,0,0,1,2.187,2.187v7.461A2.19,2.19,0,0,1-49.41-77.52Zm-5-9.836a.188.188,0,0,0-.187.187v7.461a.188.188,0,0,0,.187.187h5a.188.188,0,0,0,.187-.187v-7.461a.188.188,0,0,0-.187-.187Z" transform="translate(55.6 88.356)" fill="#2f3d7e"></path></g><g transform="translate(1.113 30.622)"><path d="M-288.048,18.213h-17.677a2.208,2.208,0,0,1-1.928-1.111,2.207,2.207,0,0,1-.007-2.225L-299.23.123A2.234,2.234,0,0,1-297.294-1h24.51a1,1,0,0,1,1,1,1,1,0,0,1-1,1h-24.51a.23.23,0,0,0-.2.115l-8.431,14.755a.219.219,0,0,0,0,.229.219.219,0,0,0,.2.114h17.677a1,1,0,0,1,1,1A1,1,0,0,1-288.048,18.213Z" transform="translate(306.956)" fill="#2f3d7e"></path></g><g transform="translate(52.753 47.835)"><path d="M14.754-214.927H0a1,1,0,0,1-1-1,1,1,0,0,1,1-1H14.754a1.461,1.461,0,0,0,1.459-1.459v-24.59a1,1,0,0,1,1-1,1,1,0,0,1,1,1v24.59A3.463,3.463,0,0,1,14.754-214.927Z" transform="translate(0 242.977)" fill="#2f3d7e"></path></g><g transform="translate(52.753 69.967)"><path d="M17.213,1H0A1,1,0,0,1-1,0,1,1,0,0,1,0-1H17.213a1,1,0,0,1,1,1A1,1,0,0,1,17.213,1Z" fill="#2f3d7e"></path></g><g transform="translate(57.671 52.753)"><path d="M-4.477-77.52h-5a2.19,2.19,0,0,1-2.187-2.187v-7.461a2.19,2.19,0,0,1,2.187-2.187h5a2.19,2.19,0,0,1,2.187,2.187v7.461A2.19,2.19,0,0,1-4.477-77.52Zm-5-9.836a.188.188,0,0,0-.187.187v7.461a.188.188,0,0,0,.187.187h5a.188.188,0,0,0,.187-.187v-7.461a.188.188,0,0,0-.187-.187Z" transform="translate(10.667 88.356)" fill="#2f3d7e"></path></g><g transform="translate(40.713 30.622)"><path d="M32.941,18.213H15.264a1,1,0,0,1,0-2H32.941a.23.23,0,0,0,.2-.343L24.709,1.116A.23.23,0,0,0,24.51,1H0A1,1,0,0,1-1,0,1,1,0,0,1,0-1H24.51A2.234,2.234,0,0,1,26.446.124l8.431,14.754a2.23,2.23,0,0,1-1.936,3.336Z" fill="#2f3d7e"></path></g><g transform="translate(30.622 50.294)"><path d="M-108.3-38.259h-12.379a2.19,2.19,0,0,1-2.187-2.187V-42.99a2.19,2.19,0,0,1,2.187-2.187H-108.3a2.19,2.19,0,0,1,2.187,2.187v2.543A2.19,2.19,0,0,1-108.3-38.259Zm-12.379-4.918a.188.188,0,0,0-.187.187v2.543a.188.188,0,0,0,.187.187H-108.3a.188.188,0,0,0,.187-.187V-42.99a.188.188,0,0,0-.187-.187Z" transform="translate(121.866 44.177)" fill="#2f3d7e"></path></g><path d="M298.405-166.038h-12.3a1,1,0,0,1-1-1V-186.71a1,1,0,0,1,1-1h12.3a1,1,0,0,1,1,1v19.672A1,1,0,0,1,298.405-166.038Zm-11.3-2h10.3V-185.71h-10.3Z" transform="translate(-254.259 241.923)" fill="#2f3d7e"></path><g transform="translate(23.245 69.967)"><path d="M8.607,1H0A1,1,0,0,1-1,0,1,1,0,0,1,0-1H8.607a1,1,0,0,1,1,1A1,1,0,0,1,8.607,1Z" fill="#2f3d7e"></path></g><g transform="translate(44.147 69.967)"><path d="M8.607,1H0A1,1,0,0,1-1,0,1,1,0,0,1,0-1H8.607a1,1,0,0,1,1,1A1,1,0,0,1,8.607,1Z" fill="#2f3d7e"></path></g></g></g></g></svg>