<svg xmlns="http://www.w3.org/2000/svg" width="80.205" height="80.221" viewBox="0 0 80.205 80.221"><path d="M80.7,40.111a1.174,1.174,0,0,0-.684-1.068L59.46,29.592l20.56-9.451a1.187,1.187,0,0,0,0-2.135L41.085.107a1.176,1.176,0,0,0-1.007.012L36.552,1.843a1.176,1.176,0,0,0,1.033,2.112l3.025-1.479,6.639,3.052-6.7,3.08L31.917,4.651a1.441,1.441,0,0,0-1.293-.157L1.168,18.005a1.187,1.187,0,0,0,0,2.135l20.56,9.452L17.7,31.445a1.176,1.176,0,0,0,.982,2.135l5.8-2.665c.021-.009.04-.021.06-.031L40.1,38.039a1.18,1.18,0,0,0,.982,0l15.562-7.153,20.069,9.225-36.122,16.6L4.471,40.111l7.9-3.633a1.176,1.176,0,0,0-.981-2.135l-10.226,4.7a1.187,1.187,0,0,0,0,2.135l20.56,9.451L1.167,60.081a1.187,1.187,0,0,0,0,2.135L40.1,80.114a1.184,1.184,0,0,0,.982,0l6.737-3.1a1.176,1.176,0,0,0-.982-2.135l-6.246,2.872L4.471,61.149l20.069-9.226L40.1,59.077a1.184,1.184,0,0,0,.982,0L56.717,51.89a1.166,1.166,0,0,0,.307.206l19.691,9.051-22.2,10.2a1.176,1.176,0,0,0,.982,2.135L80.02,62.216a1.187,1.187,0,0,0,0-2.135L59.46,50.629l20.56-9.451A1.174,1.174,0,0,0,80.7,40.111ZM50.061,31.326l-6.654-3.059L50.72,24.9l6.63,3.07ZM23.844,27.979,30.5,24.92l7.281,3.347-6.655,3.059Zm-9.905-4.553,6.655-3.059,7.092,3.26-6.655,3.059ZM21.381,11.32l6.609,3.06-7.4,3.4-6.642-3.053Zm9.413,4.358,7.066,3.272L30.5,22.333l-7.092-3.26Zm36.455-.957-6.669,3.066-7.292-3.342,6.68-3.071Zm-9.485,4.36-7.038,3.235-7.255-3.359,7-3.218Zm2.395,7.6-6.63-3.07,7.052-3.242,6.664,3.054ZM40.666,17.659,33.6,14.388l6.95-3.2,7.1,3.255Zm-7.354,5.967,7.35-3.379,7.255,3.359-7.324,3.367Zm36.749-1.494L63.4,19.078l6.665-3.064,6.654,3.059Zm-20-15.312,7.092,3.26-6.684,3.072L43.367,9.9ZM30.8,13.09l-6.606-3.059L31.1,6.862,37.732,9.9ZM11.136,16.019l6.644,3.055-6.655,3.059L4.474,19.075ZM40.594,35.678l-6.655-3.059,6.655-3.059,6.654,3.059Zm0,0" transform="translate(-0.499)" fill="#2f3d7e"></path></svg>